<svg width="162" height="208" viewBox="0 0 162 208" fill="none" xmlns="http://www.w3.org/2000/svg">
<path d="M65.8438 200.391C64.7396 200.391 63.7552 200.234 62.8906 199.922C62.026 199.609 61.2865 199.167 60.6719 198.594C60.0677 198.01 59.599 197.323 59.2656 196.531C58.9323 195.729 58.7448 194.844 58.7031 193.875L58.6875 193.719H62.625V193.828C62.6667 194.401 62.8125 194.917 63.0625 195.375C63.3125 195.833 63.6667 196.198 64.125 196.469C64.5833 196.729 65.1406 196.859 65.7969 196.859C66.8906 196.859 67.7188 196.542 68.2812 195.906C68.8542 195.26 69.1406 194.323 69.1406 193.094V177.453H73.1562V193.141C73.1562 194.651 72.8646 195.948 72.2812 197.031C71.7083 198.115 70.875 198.948 69.7812 199.531C68.6979 200.104 67.3854 200.391 65.8438 200.391ZM84.1875 200.328C82.5625 200.328 81.151 199.984 79.9531 199.297C78.7552 198.599 77.8229 197.609 77.1562 196.328C76.5 195.036 76.1719 193.5 76.1719 191.719V191.688C76.1719 189.917 76.5052 188.391 77.1719 187.109C77.8385 185.818 78.7708 184.828 79.9688 184.141C81.1667 183.443 82.5677 183.094 84.1719 183.094C85.7865 183.094 87.1927 183.443 88.3906 184.141C89.599 184.828 90.5365 185.812 91.2031 187.094C91.8698 188.375 92.2031 189.906 92.2031 191.688V191.719C92.2031 193.51 91.8698 195.052 91.2031 196.344C90.5469 197.625 89.6198 198.609 88.4219 199.297C87.224 199.984 85.8125 200.328 84.1875 200.328ZM84.2031 197.188C85.026 197.188 85.7396 196.974 86.3438 196.547C86.9479 196.12 87.4115 195.5 87.7344 194.688C88.0677 193.865 88.2344 192.875 88.2344 191.719V191.688C88.2344 190.542 88.0677 189.562 87.7344 188.75C87.401 187.938 86.9271 187.318 86.3125 186.891C85.7083 186.464 84.9948 186.25 84.1719 186.25C83.3698 186.25 82.6615 186.464 82.0469 186.891C81.4427 187.318 80.9688 187.938 80.625 188.75C80.2917 189.562 80.125 190.542 80.125 191.688V191.719C80.125 192.875 80.2917 193.865 80.625 194.688C80.9688 195.5 81.4427 196.12 82.0469 196.547C82.6615 196.974 83.3802 197.188 84.2031 197.188ZM100.844 200.328C99.125 200.328 97.8438 199.953 97 199.203C96.1667 198.453 95.75 197.224 95.75 195.516V186.438H93.4062V183.438H95.75V179.234H99.7031V183.438H102.781V186.438H99.7031V195.203C99.7031 196.005 99.8802 196.562 100.234 196.875C100.599 197.177 101.13 197.328 101.828 197.328C102.026 197.328 102.198 197.323 102.344 197.312C102.5 197.292 102.646 197.276 102.781 197.266V200.188C102.552 200.219 102.271 200.25 101.938 200.281C101.615 200.312 101.25 200.328 100.844 200.328Z" fill="white"/>
<rect width="162" height="162" rx="37" fill="#202020"/>
<path d="M81.5 34L122.636 105.25H40.3638L81.5 34Z" fill="url(#paint0_linear_314_2)"/>
<defs>
<linearGradient id="paint0_linear_314_2" x1="81.5" y1="34" x2="81.5" y2="129" gradientUnits="userSpaceOnUse">
<stop stop-color="#FF0000"/>
<stop offset="1" stop-color="#FF7171"/>
</linearGradient>
</defs>
</svg>
